<svg id="图层_1" data-name="图层 1" xmlns="http://www.w3.org/2000/svg" viewBox="0 0 1030 800"><defs><style>.cls-1{fill:#f2f4ff;}.cls-2{fill:#e7eaff;}.cls-3{fill:#a5a3ff;}.cls-4{fill:#3d3d3d;}.cls-5{fill:#ff8500;}.cls-6{fill:#f69cb3;}.cls-7{fill:#f6c6c0;}.cls-8{fill:#fff;}.cls-9{fill:#e0523c;}.cls-10{fill:#f6cdc1;}.cls-11{fill:#cecfff;}.cls-12{fill:#b7bbff;}.cls-13{fill:#e3e1ff;}.cls-14{fill:#6584f7;}.cls-15{fill:#3362c4;}.cls-16{opacity:0.8;}.cls-17{fill:#b9bcfc;}.cls-18{fill:#5766ea;}</style></defs><g id="path14513-6"><path class="cls-1" d="M490.09,60.53c-78.38-.22-175,22-238.19,96.85-29.64,35.13-44.49,68.13-50.74,98.64a159.16,159.16,0,0,0-33.84,204.9,159.57,159.57,0,0,0-51.17,266.5c1,1.68,1.66,2.6,1.66,2.6L39.66,798.2h964.23S965,787.65,931,769.64a97.62,97.62,0,0,0-29.42-164.27A164,164,0,0,0,869.75,346,149.8,149.8,0,0,0,680.43,141.46c-20.87-25.52-46-42.54-69.72-57.47-18.94-11.92-65.23-23.3-120.62-23.46Z"/></g><ellipse class="cls-1" cx="267.82" cy="249.91" rx="190.09" ry="163.08"/><ellipse class="cls-1" cx="447.52" cy="108.85" rx="95.05" ry="106.68"/><g id="path14515-02"><path class="cls-2" d="M905.19,488.9c-42.31.1-79.35,8.89-100.53,33.17-75.34,86.29-61.51,128.13-153.77,134.54s-153.68-15.69-187.68,62.95c-28.35,65.57-122.13,37.72-169.61,78.64h707.1s-38.89-10.54-72.85-28.56a97.61,97.61,0,0,0-29.43-164.27,164.48,164.48,0,0,0,49.47-114,387.6,387.6,0,0,0-42.7-2.44Z"/></g><g id="rect1757-55"><path class="cls-3" d="M772.54,598.78H625.19c-12,0-21.59,11.62-21.59,26.05v2.76c0,14.43,9.63,26,21.59,26H772.54c12,0,21.6-11.62,21.6-26v-2.76C794.14,610.4,784.51,598.78,772.54,598.78Z"/></g><g id="path4297-9-2"><path class="cls-4" d="M725.69,245.08l.5,2,1.47,5.72,2.38,8.76,1.48,5.18,1.76,6,1.88,6.17,2.14,6.72,2.27,6.84,2.48,7.16,2.62,7.19,2.8,7.27,1.95,4.82,2,4.77,2.08,4.69,2.15,4.65,2.2,4.49,2.23,4.32,2.35,4.26,2.36,4,2.37,3.73,2.06,3.28,1.81,3.14,1.58,3,1.35,2.91,1.14,2.8,1,3,.84,2.84.64,2.73.46,2.61.28,2.5.12,2.6,0,2.47-.2,2.35-.35,2.25-.51,2.14-.68,2.14-.81,2-.95,1.92-1.09,1.81-1.22,1.71-1.36,1.62-1.48,1.5-1.61,1.4-1.74,1.3-1.89,1.2-1.93,1.05-2,.94-2.18.82-2.32.7-2.46.59-2.43.43-2.54.29-2.66.17-2.8,0-2.93-.12-3.38-.28-3.65-.39-4-.51-6-.92-6.42-1.12-6.51-1.27-6.71-1.41-6.72-1.5-6.7-1.57-6.64-1.63-6.38-1.61-12-3.17-10.4-2.88-8.17-2.33-5.35-1.58-1.92-.57-26.59-9-.56-1-.58-1.12-.84-1.75-.86-1.95-1-2.47-.91-2.64-.91-3-.52-2.09-.46-2.22-.39-2.36-.28-2.36-.16-2.45,0-2.53.11-2.54.27-2.57.45-2.64.45-1.94.58-1.95.7-2,.84-2,.94-1.91,1.1-1.92,1.26-1.91L613.4,333l1.45-1.9,1.37-2,1.3-2.06,1.22-2.14,1.51-2.91,1.39-3L622.9,316l1.15-3.11,1.05-3.12.93-3.13.84-3.15.75-3.09.65-3,.84-4.51.66-4.18.53-4,.38-3.55.29-3.36.18-2.68.17-4,0-1.44,1.48-.82,4.14-2.25,6.36-3.3,3.77-1.89,4.33-2.11,4.52-2.12,4.9-2.22,5-2.18,5.25-2.15,5.32-2,5.37-1.9,3.61-1.18,3.55-1.07,3.49-1,3.52-.86,3.39-.7,3.25-.56,2.48-.32,2.36-.22,2.25-.11h2.14l2.17.1,2,.24,1.88.35,1.75.46,1.39.49,1.29.57,1.19.67,1.11.75,1,.84Z"/></g><g id="path4262-71-0"><path class="cls-5" d="M675.82,338.71l3.52.08,3.16.19,3,.27,2.43.3,3.65.56,1.33.26,1.62,1.84,1.71,1.81,1.82,1.77,1.93,1.75,2.65,2.22,2.78,2.19,2.93,2.15,4.48,3.12,4.67,3.07,9.48,6,4.73,3,4.62,3.09,3,2.11,2.91,2.15,2.8,2.18,2.72,2.27,2.55,2.33,2.38,2.39,1.83,2.15,2.35,3.09,2.45,3.42,2.83,4.17,2.9,4.41,3.16,4.94,3.2,5.1,3.34,5.42,6.71,11.1,6.57,11.09,6.14,10.5,5.38,9.32,4.32,7.54,3,5.18.6,1.12.52,1.11-40.19,4.08-17.66-26.48,13.73,84.9H657.5l-23.91-56.23-2.63-.72-2.38-.81-2.14-.89-1.92-1-1.53-.91-1.38-1-1.25-1-1.13-1-1-1.09-.94-1.18-.84-1.21-.72-1.26-.62-1.31-.52-1.35-20,20.58-.25.24-.5.39-.25.12-.11,0-3.41,6-38.17-2.42,2.2-5.85,2.29-5.8,2.37-5.77,3.67-8.57,3.74-8.4,3.8-8.3,3.73-8.05,7.2-15.55,2.48-5.46,2.94-6.32,1.6-3.32,1.66-3.34,1.72-3.31,1.72-3.14,1.77-3,1.7-2.68,1.19-1.71,1.13-1.47,1-1.24,3.17-3.41,3-3.1,2.82-2.8,4.24-4,3.9-3.52,3.84-3.33,3.56-3,6.74-5.54,3.17-2.66,3-2.62,2.88-2.7,2.76-2.81,1.14-1.49,1.23-1.37,1.31-1.26,1.41-1.14,1.48-1L651,344l1.61-.85,1.68-.76,2.29-.89,2.36-.74,2.42-.61,2.45-.48,2.45-.38,2.45-.27,2.46-.18,2.38-.1,2.31,0Z"/></g><g id="path4242-8-1"><path class="cls-6" d="M635.7,277.5l-6.63,16.78-1.58-.27-1.44-.39-1.32-.53-1.2-.65-1.14-.78-1-.87-.94-1-.85-1.07-.76-1.14-.66-1.19-.59-1.26-.49-1.32-.54-1.8-.38-1.83-.25-1.85-.11-1.88,0-1.8.15-1.75.28-1.73.4-1.57.5-1.43.47-1,.53-.9.56-.78.61-.66.7-.57.74-.42.78-.28.84-.13.83,0,.91.19,1,.39,1.1.62,1,.71,1.06.95,1.17,1.24,1.28,1.58,1.12,1.56,1.2,1.89,1.3,2.26Z"/></g><g id="path4248-13-5"><path class="cls-7" d="M689.16,294.28l-.09,1.29-.23,3.46-.3,5-.31,5.93-.25,6.22-.13,5.9v2.71l.06,2.23.16,4.79.07,3.61v5.18l0,1.76-24.3,22.1-12.69-11.84L658,327Z"/></g><g id="path4250-3-9"><path class="cls-6" d="M689.16,294.28,658,327l-5.19,19.36,1.7.31,1.71.18,1.72.06,1.29-.05,1.27-.15,1.24-.26,1.22-.35,1.17-.48,1.13-.6,1.09-.75,1.06-.89,1.29-1.37,1.23-1.56,1.17-1.73,1-1.82,1-1.91.91-2,1.22-3.07,1-3.09.91-3.07.74-2.85.63-2.75.46-2.29.61-3.5.19-1.32Z"/></g><g id="path4252-1-6"><path class="cls-7" d="M689.16,294.28l1.58-.27,1.44-.39,1.31-.53,1.21-.65,1.13-.78,1-.87.94-1,.85-1.07.75-1.14.67-1.19.58-1.26.5-1.32.53-1.8.39-1.83.25-1.85.1-1.88,0-1.8-.15-1.75L702,271.2l-.39-1.57-.5-1.43-.48-1-.52-.9-.57-.78-.61-.66-.7-.57-.73-.42-.79-.28-.84-.13-.83,0-.9.19-1,.39-1.1.62-1,.71-1.06.95-1.17,1.24-1.28,1.58-1.11,1.56-1.21,1.89-1.29,2.26-1.4,2.67-2.95-4.65L678,270.31l-1.66-2.78-1-1.91-1-2-.93-2.09-.81-2.14-.69-2.21-.55-2.31-.3-1.75-.18-1.8-.08-1.86,0-1.92.17-1.89.33-2,.49-2,.65-2.11-5.17,1.66-5,1.51-3.3.94-3.25.82-3.21.72-3.23.61-3.24.46-3.27.32-2.45.13-2.49,0-2.53-.07-2.59-.18-2.55-.29-2.64-.42-2.72-.56-2.82-.7-.39,4.93-.28,4.8-.17,4.65,0,4.52,0,4.39.21,5.6.37,5.32.5,5.07.64,4.81.65,3.94.72,3.73.8,3.54.86,3.34.92,3.16,1.08,3.25,1.13,3,1.17,2.79,1.22,2.59,1.25,2.38,1.44,2.43,1.46,2.17,1.49,1.93,1.5,1.72,1.53,1.51,1.42,1.22,1.42,1,1.44.89,1.44.73,1.46.58,1.48.45,1.52.3,1.54.15h1.56l1.6-.17,1.65-.32,1.69-.5,1.56-.62,1.6-.78,1.66-1,1.71-1.18,1.77-1.4,1.84-1.63,1.61-1.6,1.65-1.81,1.7-2.05,1.76-2.3,1.81-2.58,1.86-2.87,2-3.27,2-3.64,2.06-4.06,2.11-4.49,2.17-5Z"/></g><g id="path4254-4-7"><path class="cls-6" d="M688.12,283.29v-.21l.11-.65.47-1.85.37-1.14.5-1.33.59-1.34.72-1.4.84-1.35,1-1.3.74-.76.65-.48.58-.27.63-.13h.57l.53.13.75.36.63.48.54.55.38.46.32.48-.51-.1-.53,0-.73,0-.5.09-.53.17-.56.28-.51.35-.5.5-.5.68-.22.5-.11.5V277l.15.77.27.83.64,1.68.23.87.1.86-.05.57-.17.59-.3.61-.41.54-.61.59-.86.63-.94.54-.74.34-.58.18-.59.07-.45,0-.35-.12-.31-.21-.25-.27-.19-.32-.18-.53-.1-.55,0-1,0-.42Z"/></g><g id="path4256-8-2"><path class="cls-8" d="M663.82,364.46l24.29-24.29-.1-8.32,1.25.95,1.12,1,1,1,.89,1,1.07,1.46.9,1.46.73,1.47.61,1.52.47,1.48.33,1.45.22,1.48.12,1.38v1.3l-.09,1.3-.15,1.15-.23,1-15.39,31.85Z"/></g><g id="path4258-8-4"><path class="cls-8" d="M651.13,352.62,655.31,337l-1.46.44-1.44.61-1.43.8-1.37.92-1.31,1.06L647,342l-1.18,1.28-1.1,1.36-1,1.44-.92,1.51-.8,1.52-.67,1.56-.56,1.6-.41,1.55-.26,1.54-.09,1.16v1.12l.1,1.07.2,1,.47,1.71.83,3,1.06,3.81,1.17,4.17,1.13,4,1,3.47.68,2.43.26.91,16.93-18.87Z"/></g><g id="path4260-0-9"><path class="cls-4" d="M622,248.53l.49,1.62.62,1.67.76,1.71.89,1.77,1.31,2.27,1.5,2.3,1.71,2.34,1.82,2.26,2,2.24,2.13,2.22,2.22,2.13,2.33,2.06,2.43,2L644.7,277l2.55,1.77,2.61,1.65,2.67,1.53,2.67,1.36,2.66,1.2,2,.8,2,.69,2,.58,2,.46,2,.36,1.93.22,1.87.09,1.82,0,1.83-.17,1.75-.33,1.68-.47,1.63-.62,2.17-8.58.44-.92,1.26-2.34.86-1.46,1.08-1.66,1.19-1.64,1.32-1.62,1-1,1-.93,1-.82,1.09-.71,1.1-.54,1.11-.38,1.37-.44,1.92-.83,2-1,2.37-1.29,2.44-1.41,2.61-1.57,5.2-3.27,4.88-3.18,4.08-2.74,2.8-1.91,1-.72-.41-1.45L724,239.68l-.91-2.62-1.22-3.23-1.38-3.36-1.69-3.77-1.22-2.52-1.36-2.6-1.49-2.69-1.57-2.64-1.7-2.63L709.67,211l-1.94-2.54L705.66,206l-2.19-2.36-1.73-1.7-1.8-1.6-1.87-1.51-1.94-1.43-2-1.28L692,195l-2.13-1-2.19-.79-2.24-.64-2.29-.5-2.33-.36-2.38-.24-2.39-.1h-2.42l-2.45.12-2.49.24-3.3.47-3.32.63-3.34.79-3.31.92-3.29,1-3.27,1.16L645.65,198l-3.16,1.32-3.09,1.39-4.53,2.2-4.26,2.22-4.1,2.29-3.7,2.19-1.52,1-1.3,1.08-1.12,1.14-1,1.25-.84,1.25-.69,1.28-.59,1.34-.48,1.3-.36,1.29-.39,1.93-.21,1.77-.09,1.69,0,1.41.07,1.28.1.85.12.79-1.3,2.69-1.37,2.63-2.7,5.15L608,243.38l-1,2.58-.56,1.75-.41,1.76-.28,1.8-.11,1.35V254l.11,1.43.22,1.46.33,1.43.47,1.48.62,1.57.79,1.64,1.41,2.53,1.33,2.14,1.25,1.81,1.35,1.74,1.23,1.44,1.11,1.15,1.7,1.56,1.34,1,1.26.82.81.44.76.33-.08-1.28-.16-3.45-.15-5.09,0-2.95V262l.07-3.32.14-3.42.22-3.41.32-3.33Z"/></g><g id="path14884-3-0"><path class="cls-9" d="M633.59,481.83l2.42,0,2.57-.14,1.72-.17,1.78-.28,1.85-.39,1.82-.51,1.88-.68,2-.87L651,478l1.44-.87,1.5-1,1.54-1.17,1.44-1.22,1.48-1.4,1.54-1.6,1.6-1.82L663,467.1l1.51-2.07,1.57-2.33,1.62-2.6,2.48,2.45L672.8,465l1.82,1.53,1.9,1.47,2,1.4,2.07,1.29,2.21,1.19,2.34,1.09,1.79.71,1.89.63,2,.54,2.11.47,2.1.35,2.23.25,2.38.14,2.54,0,2.47-.09,2.64-.23,2.83-.37,3-.52-61.81,48.68Z"/></g><g id="path4200-9-7"><path class="cls-9" d="M614.57,467.14V447.26l-20,40.46Z"/></g><g id="path4286-3-2-2"><path class="cls-10" d="M449.82,410.41l.62.08.84.2,1.11.37,1.67.68,2.05,1,2.12,1.06,2.3,1.23,4.66,2.63,4.42,2.61,3.74,2.29,2.58,1.6,1,.62.08-.14.15-.5.32-1.41.22-.85.28-.9.34-.88.41-.78.32-.47.36-.38.38-.29.43-.18.47-.06.55.07.53.19.63.39.76.63.58.58.6.71.6.87.8,1.38.77,1.57.7,1.62.63,1.61,1,3,.69,2.26.29,1,1.12,2.65,1.19,2.67,1.14,2.38,4.66,2.34,5.38,2.75L515,452.7l12.79,6.86,13.39,7.3,13.45,7.45,13,7.28,12,6.82L590,494.47l-.71,1.54-.8,1.47-.91,1.4-1,1.32-1.1,1.25-1.17,1.18-1.24,1.1-1.32,1L579.92,506,578,507.08l-2,.94-2,.79-2,.63-2.05.47-2.08.32-2,.14-1.95,0-1.47-.13L561,510l-1.33-.32-1.26-.42-3.66-1.52-3.55-1.6-3.46-1.68-3.37-1.78-4.43-2.5-4.32-2.63-4.2-2.76-4.13-2.87-4.07-3-4-3.08-5.92-4.76-5.91-4.93L495.53,466l-6-5.14-6.15-5.2L463.2,448l-.4-.32-.49-.53-.61-.81-.85-1.34-1-1.77-1-1.92-1.09-2.19-2.18-4.63-2.15-4.69-2-4.3-1.72-3.44-1.11-2.19-.81-1.86-.55-1.58-.32-1.26-.14-1v-.87l.13-.73.22-.56.31-.47.41-.4.52-.33.67-.26.34-.09.42,0Z"/></g><g id="path4290-2-6"><path class="cls-8" d="M590,494.47l4.52-6.75L559.26,460l-1.92,15.85Z"/></g><g id="path4231-7-1"><path class="cls-9" d="M750.12,453.16l-3.5-13.06-2.3-8.59,32.54,35.08L761.5,470.7Z"/></g><g id="path4286-8-1"><path class="cls-7" d="M790.1,461.57l1.62,1,1.57,1.12,1.49,1.3,1.39,1.41,1.3,1.52,1.22,1.65,1.1,1.73,1,1.78.88,1.85.76,1.9.64,1.9.5,1.9.37,1.92.21,1.86.08,1.81-.09,1.79-.24,1.68-.4,1.56-.42,1.14-.51,1-.62,1-.71.89-2.07,2.1-2.17,2-2.29,1.86-2.4,1.74-2.48,1.63-2.57,1.53-2.66,1.45-2.77,1.37-3.74,1.68-3.86,1.57-4,1.47-4,1.37-4.11,1.31-4.18,1.25-12.64,3.56-6.33,1.8-6.22,1.86-4.11,1.32-4,1.4L720.67,529l-3.86,1.6-3.71,1.73-3.57,1.85-1.33,3.9H660.07l-.56-.25-.51-.28-.47-.34-.38-.41-.36-.62-.21-.59-.08-.56,0-.57.17-.57.35-.65.54-.69.75-.74,1-.79,1.41-.9,1.78-1,2.23-1,7.69-4.36,3.35-1.79,2.88-1.42,1.9-.84,1.77-.7,1.66-.55,1.68-.46,1.65-.32,1.64-.21,1.64-.09,1.72,0,1.8.15,1.79.25,2,.37,2.15.51,5.82-2.94,5.7-3,5.58-3.08,8.27-4.78,8.18-4.9L751,489.86l8.27-5.09,8.51-5.13,2.35-1.48,2.2-1.49,2-1.52,3-2.36,2.72-2.35,5.12-4.63,2.49-2.2Z"/></g><g id="path4288-0-1"><path class="cls-8" d="M767.78,479.64l-6.28-8.94L809.73,454,808,475.56Z"/></g><g id="rect4732-55"><path class="cls-11" d="M526.54,513.52a4.77,4.77,0,0,0-4.77,4.78v6.56a4.77,4.77,0,0,0,4.77,4.78h6.57a4.77,4.77,0,0,0,4.78-4.78V518.3a4.77,4.77,0,0,0-4.78-4.78Zm21.38,0a4.77,4.77,0,0,0-4.78,4.78v6.56a4.77,4.77,0,0,0,4.78,4.78h6.57a4.77,4.77,0,0,0,4.77-4.78V518.3a4.77,4.77,0,0,0-4.77-4.78Zm20.67,0a4.77,4.77,0,0,0-4.77,4.78v6.56a4.77,4.77,0,0,0,4.77,4.78h6.57a4.77,4.77,0,0,0,4.77-4.78V518.3a4.77,4.77,0,0,0-4.77-4.78Zm21.2,0A4.76,4.76,0,0,0,585,518.3v6.56a4.76,4.76,0,0,0,4.77,4.78h6.57a4.77,4.77,0,0,0,4.77-4.78V518.3a4.77,4.77,0,0,0-4.77-4.78Zm21.37,0a4.77,4.77,0,0,0-4.77,4.78v6.56a4.77,4.77,0,0,0,4.77,4.78h6.57a4.77,4.77,0,0,0,4.77-4.78V518.3a4.77,4.77,0,0,0-4.77-4.78Zm20.67,0a4.77,4.77,0,0,0-4.77,4.78v6.56a4.77,4.77,0,0,0,4.77,4.78h6.57a4.77,4.77,0,0,0,4.78-4.78V518.3a4.77,4.77,0,0,0-4.78-4.78Z"/></g><g id="rect1633-02"><path class="cls-3" d="M519.2,518.86H650.05a7.91,7.91,0,0,1,7.93,7.93v3.34a7.91,7.91,0,0,1-7.93,7.93H519.2a7.92,7.92,0,0,1-7.93-7.93v-3.34A7.92,7.92,0,0,1,519.2,518.86Z"/></g><g id="path1707-6"><path class="cls-3" d="M872.82,577.23,912,787.47c1.09,5.84-4.78,10.73-10.73,10.73h-3.61c-6,0-12.15-4.78-13.33-10.73l-61-210.24Z"/></g><g id="path1785-54"><path class="cls-11" d="M659.6,653.64v110.5h33.23V653.64Z"/></g><g id="path1787-2"><path class="cls-3" d="M651.53,764.14c-13.91,0-25.11,11.62-25.11,26.05v8H726v-8c0-14.43-11.19-26.05-25.1-26.05Z"/></g><g id="rect3745-85"><path class="cls-3" d="M338.9,522.83a15,15,0,0,0-15,15,1.15,1.15,0,0,0,0,.19H474.33v-.19a15,15,0,0,0-15.05-15Z"/></g><g id="path3756-8"><path class="cls-3" d="M303.47,570.81l19.48,213c.54,5.92,7.52,9,13.24,7.41l3.48-1c5.72-1.62,10.4-7.91,9.92-14l1.59-218.91Z"/></g><g id="rect1648-6"><path class="cls-12" d="M163.31,538.06h758a11.37,11.37,0,0,1,11.4,11.39v18a11.37,11.37,0,0,1-11.4,11.39h-758a11.37,11.37,0,0,1-11.4-11.39v-18a11.37,11.37,0,0,1,11.4-11.39Z"/></g><g id="path51738-1"><path class="cls-11" d="M358.21,628.08a7.2,7.2,0,0,1,3.4,1.09c5.43,3.48,4.87,14-1.25,23.59-4.86,7.59-12,12.49-17.53,12.07a143.17,143.17,0,0,0-10.5,19,32.38,32.38,0,0,1,11.44-3.56c11.25-1.4,21,2.65,21.82,9.06h0c.8,6.4-7.68,12.72-18.94,14.12h0c-8.62,1.07-16.68-1.07-20.14-5.33a175.6,175.6,0,0,0-5.63,19.25,35.66,35.66,0,0,1,6.77-1.54c11.26-1.4,21,2.65,21.82,9.06h0c.8,6.4-7.68,12.72-18.93,14.13h0a31.61,31.61,0,0,1-13.14-1,175.76,175.76,0,0,0-.5,32.07,4.74,4.74,0,0,1-9.45.71,183.72,183.72,0,0,1,1.09-38.22c-5.71,1.15-13.37-4.3-18.2-13-5.53-9.9-5.44-20.48.19-23.62s14.68,2.34,20.21,12.24h0a35.4,35.4,0,0,1,1.78,3.67c1.47-5.84,3.15-11.3,4.92-16.33-4.1-2.16-8.1-6.36-11-11.52-5.53-9.9-5.44-20.48.19-23.62s14.68,2.33,20.21,12.24h0l.23.45A142.74,142.74,0,0,1,336,658.06c-1-5,.81-11.82,4.71-17.91,4.86-7.58,12-12.47,17.52-12.07Z"/></g><g id="path51740-5"><path class="cls-11" d="M212.42,628.08a7.16,7.16,0,0,0-3.4,1.09c-5.43,3.48-4.87,14,1.25,23.59,4.86,7.59,12,12.49,17.53,12.07a142,142,0,0,1,10.5,19,32.38,32.38,0,0,0-11.44-3.56c-11.26-1.4-21,2.65-21.82,9.06h0c-.8,6.4,7.68,12.72,18.94,14.12h0c8.62,1.07,16.68-1.07,20.14-5.33a175.6,175.6,0,0,1,5.63,19.25,35.66,35.66,0,0,0-6.77-1.54c-11.26-1.4-21,2.65-21.82,9.06h0c-.8,6.4,7.68,12.72,18.93,14.13h0a31.61,31.61,0,0,0,13.14-1,175.76,175.76,0,0,1,.5,32.07,4.74,4.74,0,1,0,9.45.71,183.69,183.69,0,0,0-1.1-38.22c5.72,1.15,13.38-4.3,18.21-13,5.53-9.9,5.44-20.48-.19-23.62s-14.68,2.34-20.21,12.24h0a35.4,35.4,0,0,0-1.78,3.67c-1.47-5.84-3.15-11.3-4.92-16.33,4.1-2.16,8.1-6.36,11-11.52,5.53-9.9,5.44-20.48-.19-23.62s-14.68,2.33-20.21,12.24h0c-.07.15-.15.3-.23.45a141,141,0,0,0-8.89-15.11c1-5-.81-11.82-4.71-17.91-4.86-7.58-12-12.47-17.52-12.07Z"/></g><g id="path51742-9"><path class="cls-3" d="M277,585.89a5.72,5.72,0,0,0-1.17,0c-6.41.72-10.58,10.44-9.31,21.71.89,7.86,4.27,14.73,8.7,17.65q.4,3.21.87,7a28.15,28.15,0,0,0-3.69-2.06c-8.05-3.69-16.29-3-18.39,1.6h0c-2.1,4.58,2.72,11.29,10.77,15h0c4.6,2.1,9.49,2.85,13.2,2,.49,4.57,1,9.44,1.48,14.53a27.1,27.1,0,0,0-3.84-2.16c-8.05-3.7-16.28-3-18.39,1.6h0c-2.1,4.58,2.72,11.29,10.77,15,4.48,2.06,9.25,2.82,12.93,2.08q.64,7.74,1.18,15.82a27.11,27.11,0,0,0-4-2.27c-8.06-3.7-16.29-3-18.39,1.6s2.72,11.28,10.77,15c4.33,2,8.94,2.78,12.58,2.15.7,14.77,1,29.7.64,43.68a4.74,4.74,0,0,0,9.47.36.41.41,0,0,1,0-.11c.38-14.53.06-30-.68-45.2,4.1.37,9.5-2.08,13.9-6.33,6.37-6.16,8.69-14.09,5.19-17.71h0c-3.51-3.62-11.51-1.57-17.88,4.59a29.22,29.22,0,0,0-2.2,2.4q-.52-7.71-1.14-15.13c4.07.21,9.28-2.23,13.55-6.36,6.37-6.16,8.69-14.09,5.19-17.71h0c-3.51-3.62-11.51-1.56-17.88,4.6a27.77,27.77,0,0,0-2.37,2.61c-.48-4.93-1-9.66-1.44-14.1,4,.1,9.11-2.34,13.28-6.37,6.37-6.16,8.69-14.08,5.19-17.71h0c-3.51-3.62-11.51-1.56-17.88,4.6h0a26.45,26.45,0,0,0-2.51,2.8q-.42-3.43-.8-6.39c4-3.65,6-11.4,5-19.64C288.5,594.53,283,586.26,277,585.89Z"/></g><g id="path51736-31"><path class="cls-11" d="M179.33,628.08a7.16,7.16,0,0,1,3.4,1.09c5.43,3.48,4.87,14-1.25,23.59-4.86,7.59-12,12.49-17.53,12.07a143.41,143.41,0,0,0-10.49,19,32.26,32.26,0,0,1,11.43-3.56c11.26-1.4,21,2.65,21.82,9.06h0c.8,6.4-7.68,12.72-18.93,14.12h0c-8.62,1.07-16.69-1.07-20.15-5.33A173.48,173.48,0,0,0,142,717.41a35.48,35.48,0,0,1,6.77-1.54c11.25-1.4,21,2.65,21.82,9.06h0c.79,6.4-7.68,12.72-18.94,14.13h0a31.61,31.61,0,0,1-13.14-1,175.76,175.76,0,0,0-.5,32.07,4.74,4.74,0,1,1-9.45.71,183.69,183.69,0,0,1,1.1-38.22c-5.71,1.15-13.37-4.3-18.21-13-5.53-9.9-5.44-20.48.19-23.62s14.69,2.34,20.21,12.24h0a33.48,33.48,0,0,1,1.78,3.67c1.48-5.84,3.15-11.3,4.92-16.33-4.1-2.16-8.1-6.36-11-11.52-5.53-9.9-5.44-20.48.19-23.62s14.68,2.33,20.21,12.24h0c.08.15.16.3.23.45a142.33,142.33,0,0,1,8.9-15.11c-1-5,.81-11.82,4.71-17.91,4.85-7.58,12-12.47,17.51-12.07Z"/></g><g id="ellipse15434-9-3"><path class="cls-11" d="M33.54,628.08a7.23,7.23,0,0,0-3.4,1.09c-5.43,3.48-4.87,14,1.25,23.59,4.87,7.59,12,12.49,17.53,12.07a142,142,0,0,1,10.5,19A32.38,32.38,0,0,0,48,680.31c-11.25-1.4-21,2.65-21.82,9.06h0c-.79,6.4,7.68,12.72,18.94,14.12h0c8.62,1.07,16.69-1.07,20.14-5.33a175.6,175.6,0,0,1,5.63,19.25,35.48,35.48,0,0,0-6.77-1.54c-11.26-1.4-21,2.65-21.82,9.06h0c-.8,6.4,7.68,12.72,18.93,14.13h0a31.67,31.67,0,0,0,13.15-1,176.7,176.7,0,0,1,.49,32.07,4.74,4.74,0,1,0,9.45.72h0a183.72,183.72,0,0,0-1.09-38.22c5.71,1.15,13.37-4.3,18.2-13,5.53-9.9,5.44-20.48-.19-23.62S86.54,698.38,81,708.28h0A37.55,37.55,0,0,0,79.23,712c-1.47-5.84-3.15-11.3-4.92-16.33,4.11-2.16,8.11-6.36,11-11.52,5.52-9.9,5.44-20.48-.2-23.62s-14.68,2.33-20.2,12.24h0l-.24.45a141,141,0,0,0-8.89-15.11c1-5-.81-11.82-4.71-17.91-4.86-7.58-12-12.47-17.52-12.07Z"/></g><g id="path52403-35"><path class="cls-3" d="M107.37,585.89a5.71,5.71,0,0,0-1.17,0c-6.41.72-10.58,10.44-9.31,21.71.89,7.86,4.27,14.73,8.69,17.65q.42,3.21.87,7a27.4,27.4,0,0,0-3.68-2.06c-8.06-3.69-16.29-3-18.39,1.6h0c-2.1,4.58,2.72,11.29,10.77,15h0c4.6,2.1,9.49,2.85,13.2,2,.49,4.57,1,9.44,1.48,14.53a27.1,27.1,0,0,0-3.84-2.16c-8.06-3.7-16.29-3-18.39,1.6h0c-2.1,4.58,2.72,11.29,10.77,15,4.49,2.06,9.25,2.82,12.93,2.08q.63,7.74,1.18,15.82a26.71,26.71,0,0,0-4-2.27c-8-3.7-16.28-3-18.38,1.6s2.72,11.28,10.77,15c4.33,2,8.94,2.78,12.58,2.15.7,14.77,1,29.7.64,43.68a4.74,4.74,0,0,0,9.47.36v-.11c.39-14.53.06-30-.67-45.2,4.1.37,9.49-2.08,13.9-6.33,6.36-6.16,8.69-14.09,5.18-17.71h0c-3.5-3.62-11.5-1.57-17.87,4.59a27.54,27.54,0,0,0-2.2,2.4c-.35-5.14-.74-10.19-1.14-15.13,4.07.21,9.28-2.23,13.55-6.36,6.37-6.16,8.69-14.09,5.18-17.71h0c-3.5-3.62-11.5-1.56-17.87,4.6a27.77,27.77,0,0,0-2.37,2.61c-.48-4.93-1-9.66-1.45-14.1,4,.1,9.12-2.34,13.29-6.37,6.37-6.16,8.69-14.08,5.19-17.71h0c-3.51-3.62-11.51-1.56-17.88,4.6h0a27.7,27.7,0,0,0-2.52,2.8c-.27-2.29-.54-4.42-.79-6.39,4-3.65,6-11.4,5-19.64-1.19-10.48-6.69-18.75-12.74-19.12Z"/></g><g id="rect1084-9-2"><path class="cls-11" d="M51.15,735.24l8,48.25c1.1,8.07,6.56,14.71,14.71,14.71H329c8.14,0,14.2-6.57,14.71-14.71l7.48-48.25Z"/></g><g id="rect1096-7-55"><path class="cls-12" d="M51.15,735.24l1.82,11H349.43l1.71-11Z"/></g><g id="rect1082-5-04"><path class="cls-11" d="M47.56,705.83H355.12a14.71,14.71,0,1,1,0,29.41H47.56a14.71,14.71,0,1,1,0-29.41Z"/></g><g id="rect3737-6"><path class="cls-11" d="M306.34,322.62h207a21.72,21.72,0,0,1,21.37,19.9l9.67,130.68a18.19,18.19,0,0,1-18.42,19.9H319a21.74,21.74,0,0,1-21.37-19.9l-9.67-130.68a18.19,18.19,0,0,1,18.43-19.9Z"/></g><g id="rect3739-89"><path class="cls-13" d="M400.77,413.09c-7.72,0-15.89,4.76-17.68,10.8l-34,114.17h49.94l34-114.17c1.8-6-2.48-10.8-10.21-10.8Z"/></g><g id="rect1697-32"><path class="cls-3" d="M196.11,579.39l21.41,212.78c.6,5.92,7.6,9,13.31,7.29l3.47-1c5.71-1.67,10.32-8,9.79-14l0-205.61Z"/></g><g id="rect1697-32-2" data-name="rect1697-32"><path class="cls-3" d="M786.36,577.74l21.41,212.78c.6,5.92,7.61,9,13.31,7.29l3.47-1c5.71-1.67,10.33-8,9.79-14l0-205.6Z"/></g><g id="path3750-7"><path class="cls-3" d="M463.34,470.71v13h11.57v-13Z"/></g><g id="path3754-0"><path class="cls-3" d="M487,469.34v13h11.57v-13Z"/></g><g id="path27159"><path class="cls-11" d="M674.21,259.75s4.87-29.34-3.69-51.51-27.65-8.8-27.65-8.8a34.61,34.61,0,0,1,4.19-12.16c3.44-5.77,22.39-6.42,31.93,2.21s12.55,62.76,5.64,79.88-10.42-9.62-10.42-9.62Z"/></g><g id="path27163"><path class="cls-14" d="M768.7,577.23c2.82,12.95,5.11,35.07-7.7,47.88C742.08,644,628.55,653.85,628.55,653.85L645,693.78l25.9,62.78H641.5l-48-62.78-21.4-28C542.83,615,605.81,592,662.08,577.23Z"/></g><g id="path27165"><path class="cls-15" d="M593.54,693.78H645l25.9,62.78H641.5Z"/></g><g id="path27167"><path class="cls-14" d="M662.08,577.23c-23.57,6.2-46.83,15.31-65.48,25.82-22.7,12.79-37.86,28.36-29.34,52.29l-6.14,5.24-21.38,35.84-36.57,61.32-25-11.65s12.94-33.43,28.27-68.91c8.15-18.86,15.89-36.86,20-46.83,11.89-28.74,60.45-53.12,60.45-53.12Z"/></g><g id="path27169"><path class="cls-15" d="M506.42,677.18l33.32,19.24-36.57,61.32-25-11.65S491.08,712.66,506.42,677.18Z"/></g><g id="path27171"><path class="cls-7" d="M677.63,774.81l-6.7-18.25H641.5L655.79,782Z"/></g><g id="path27173"><path class="cls-8" d="M645.35,763.36l10.07,24.74,21.2-2,1-11.32-4.06-11Z"/></g><g id="path27175"><path class="cls-4" d="M609.18,798.2h77.55l-9.09-23.39c-11.72,17.27-23.94-15.68-32.47-5.38,0,0-10.92,14.77-17.36,14.93-13.07,0-21,1.58-18.63,13.84Z"/></g><g id="path27177"><path class="cls-15" d="M662.08,577.23c-18.29,4.81-37.29,10.48-53.6,17.7l15.5-17.7Z"/></g><g id="path27179"><path class="cls-15" d="M568.85,625.39c-4.66,8.6-5.67,18.48-1.59,30l-6.14,5.24-14.68,24.6C540.81,656.41,558.9,634.8,568.85,625.39Z"/></g><g id="path27181"><path class="cls-7" d="M494.5,772.6l8.67-14.86c-8.28-4-16.64-7.86-25-11.65L468,769.82Z"/></g><g id="path27183"><path class="cls-8" d="M468.85,755.27,465,775.08l19.81,7.79,9.73-10.27,4.36-7.41Z"/></g><g id="path27185"><path class="cls-4" d="M418.88,767.73l65.77,30.47,9.85-25.6c-18.24,10.15-13.4-22.68-25.65-17.33,0,0-21,6.79-26.85,4-11.67-5.88-19.72-3.59-23.12,8.43Z"/></g><g id="rect4299"><path class="cls-11" d="M290.47,58.21H158.78a12.21,12.21,0,0,0-12.24,12.24v90a12.21,12.21,0,0,0,12.24,12.24H270.45l20,20.51c4.74,4.86,12.24,2,12.24-4.76V70.45A12.21,12.21,0,0,0,290.47,58.21Z"/></g><g id="path36271-3-2"><path class="cls-11" d="M856.14,735.24l7.94,48.25c1.11,8.07,6.56,14.71,14.71,14.71h65.35c8.15,0,13.46-6.66,14.71-14.71l7.49-48.25Z"/></g><g id="path36273-9-53"><path class="cls-12" d="M856.14,735.24l1.81,11H964.63l1.71-11Z"/></g><g id="path36277-4-1"><path class="cls-11" d="M970.23,632.7c-7.22.07-26.68,6.7-32,15.71-5.23,8.82-3.58,17.54,1.33,23.79-.4,1.19-.8,2.44-1.18,3.76-3.46,12-6.07,29.76-2.93,52.6a4.74,4.74,0,0,0,9.4-1.21.22.22,0,0,0,0-.08c-.47-3.43-.8-6.73-1-9.89A11.27,11.27,0,0,0,956,716.12c5.32-4,7.81-18,6.41-19.89s-12-3-18.25-.76a100.18,100.18,0,0,1,3.25-16.75c9.09,4.73,21,3.69,28.05-8.19,6.11-10.29,1.35-34.87-3-37.44a4.69,4.69,0,0,0-2.27-.39Z"/></g><g id="path36281-2-345"><path class="cls-12" d="M843.46,646.05c-4.15,0-7.36.64-8.48,1.75-3,3-2.27,28.54,6.14,37.06,7.3,7.39,16.27,7.93,23.61,4.62,1.42,1.65,2.88,3.51,4.34,5.58-6.07.63-12.78,3.45-13.53,5.27-.89,2.18,5.05,15.1,11.21,17.63a11.22,11.22,0,0,0,12.1-1.82,56.52,56.52,0,0,1,1.17,6.19,4.74,4.74,0,0,0,9.42-1l0-.22c-2.14-16.32-10-28.93-16.93-37.16,7.12-7.58,9.32-19.57-.52-29.53-5.78-5.86-19.39-8.45-28.5-8.35Z"/></g><g id="path36283-0-7"><path class="cls-3" d="M957.87,573.86c-8.75-.13-25.14,3.83-31.07,11.06-8.71,10.61-5.72,22.1,1.73,29-.19.51-.38,1-.56,1.55-6.07,17.17-11.28,48-9.24,104.34a4.74,4.74,0,0,0,9.48-.22s0-.08,0-.12a521.56,521.56,0,0,1,.46-52.69c5.3,2.89,12.56,2.32,16.36-4.45,3.26-5.81-.1-19.63-2.15-20.78-1.52-.85-7.12.57-12,3.14A139.9,139.9,0,0,1,936.78,619c7.7,2.82,16.8,1.57,23.52-6.61,7.6-9.25,6-34.78,2.72-37.47-.85-.7-2.7-1.06-5.15-1.1Z"/></g><g id="path36285-3-2"><path class="cls-3" d="M889.39,534.8a3.61,3.61,0,0,0-.5.06c-4.12,1-16.82,23.18-14.07,34.84,2.39,10.15,9.83,15.29,17.86,16.26,3.37,26.51,9.69,83.61,8.45,130.21a4.74,4.74,0,0,0,9.47.36v-.11c.83-31.24-1.63-66.7-4.38-94.94a11.35,11.35,0,0,0,12.87-5.78c3.26-5.8-.1-19.63-2.15-20.78-1.64-.91-8.09.82-13.14,3.81-.59-5.09-1.15-9.58-1.65-13.51,10-2.79,18.06-11.87,14.86-25.46-2.65-11.29-22-25.16-27.62-25Z"/></g><g id="rect36299-9-195"><path class="cls-11" d="M852.55,705.83H970.31a14.71,14.71,0,1,1,0,29.41H852.55a14.71,14.71,0,1,1,0-29.41Z"/></g><g id="path36279-3-31"><path class="cls-11" d="M848.33,586.88a5.29,5.29,0,0,0-2.48.44c-3.69,2.08-9.74,26.93-3.88,37.37,6.34,11.28,18,13,27.26,9.06a173.85,173.85,0,0,1,20.06,95.5,4.74,4.74,0,0,0,9.45.78s0,0,0-.06a183.79,183.79,0,0,0-4.54-56.74c5.22,2.49,12,1.68,15.67-4.8,3.26-5.81-.11-19.62-2.16-20.77-2.36-1.33-14.75,2.87-18.51,8.4a177.61,177.61,0,0,0-12.15-27.62c5.84-6,8.27-15.08,2.71-25-5.13-9.13-23.89-16.53-31.44-16.58Z"/></g><g id="path36271-3-2-2" data-name="path36271-3-2"><path class="cls-11" d="M201.28,512.62l3.49,21.23c.49,3.55,2.89,6.47,6.48,6.47H240c3.58,0,5.92-2.93,6.47-6.47l3.3-21.23Z"/></g><g id="path36273-9-53-2" data-name="path36273-9-53"><path class="cls-12" d="M201.28,512.62l.8,4.85H249l.76-4.85Z"/></g><g id="path36277-4-1-2" data-name="path36277-4-1"><path class="cls-11" d="M251.49,467.49c-3.18,0-11.75,2.95-14.1,6.91a8.92,8.92,0,0,0,.59,10.47c-.18.52-.35,1.07-.52,1.66a55.9,55.9,0,0,0-1.29,23.15,2.09,2.09,0,0,0,4.14-.54,0,0,0,0,1,0,0c-.21-1.51-.35-3-.45-4.36a5,5,0,0,0,5.38-.55c2.35-1.76,3.44-7.92,2.82-8.75s-5.26-1.34-8-.34a43.9,43.9,0,0,1,1.42-7.37,8.93,8.93,0,0,0,12.35-3.6c2.69-4.54.59-15.35-1.31-16.48a2,2,0,0,0-1-.17Z"/></g><g id="path36281-2-345-2" data-name="path36281-2-345"><path class="cls-12" d="M195.69,473.36c-1.82,0-3.23.28-3.72.77-1.33,1.31-1,12.56,2.7,16.31a8.94,8.94,0,0,0,10.39,2c.62.72,1.27,1.54,1.91,2.45-2.67.28-5.63,1.52-6,2.32-.39,1,2.23,6.65,4.93,7.76a5,5,0,0,0,5.33-.8,25.66,25.66,0,0,1,.52,2.72,2.08,2.08,0,1,0,4.14-.45.28.28,0,0,0,0-.09A32.14,32.14,0,0,0,208.47,490a8.93,8.93,0,0,0-.23-13c-2.54-2.58-8.54-3.72-12.55-3.68Z"/></g><g id="path36283-0-7-2" data-name="path36283-0-7"><path class="cls-3" d="M246.05,441.59c-3.85-.06-11.06,1.69-13.68,4.87a8.92,8.92,0,0,0,.77,12.78c-.09.22-.17.45-.25.68-2.67,7.56-5,21.11-4.07,45.92a2.1,2.1,0,0,0,2.14,2,2.08,2.08,0,0,0,2-2.14v-.05c-.33-9.27-.21-16.9.2-23.19a5.13,5.13,0,0,0,7.2-2c1.44-2.55,0-8.63-.94-9.14-.67-.37-3.14.25-5.26,1.38a61.54,61.54,0,0,1,2.58-11.3,8.93,8.93,0,0,0,10.35-2.92c3.34-4.07,2.63-15.3,1.19-16.48a4,4,0,0,0-2.26-.49Z"/></g><g id="path36285-3-2-2" data-name="path36285-3-2"><path class="cls-3" d="M215.91,424.4a.78.78,0,0,0-.22,0c-1.81.43-7.4,10.2-6.19,15.33a8.94,8.94,0,0,0,7.86,7.16c1.48,11.66,4.26,36.79,3.72,57.3a2.09,2.09,0,0,0,4.17.16v-.05a358,358,0,0,0-1.93-41.78A5,5,0,0,0,229,460c1.44-2.55,0-8.63-.95-9.14-.72-.4-3.55.36-5.78,1.68q-.39-3.36-.72-6c4.39-1.23,7.95-5.22,6.54-11.2-1.17-5-9.66-11.08-12.16-11Z"/></g><g id="rect36299-9-195-2" data-name="rect36299-9-195"><path class="cls-11" d="M199.7,499.67h51.83a6.48,6.48,0,0,1,0,12.95H199.7a6.48,6.48,0,1,1,0-12.95Z"/></g><g id="path36279-3-31-2" data-name="path36279-3-31"><path class="cls-11" d="M197.84,447.32a2.25,2.25,0,0,0-1.09.2c-1.63.91-4.29,11.85-1.71,16.44,2.79,5,7.92,5.72,12,4a76.55,76.55,0,0,1,8.83,42,2.09,2.09,0,1,0,4.16.34v0a80.79,80.79,0,0,0-2-25,5.11,5.11,0,0,0,6.9-2.12c1.43-2.55-.05-8.64-1-9.14s-6.49,1.27-8.15,3.7a77.76,77.76,0,0,0-5.35-12.16c2.57-2.63,3.64-6.63,1.2-11-2.26-4-10.52-7.28-13.84-7.3Z"/></g><g id="path27576"><path class="cls-11" d="M776.85,138.48H908.54a12.21,12.21,0,0,1,12.24,12.24v89.95a12.21,12.21,0,0,1-12.24,12.24H796.87l-20,20.51c-4.74,4.86-12.24,2-12.24-4.76V150.72a12.21,12.21,0,0,1,12.24-12.24Z"/></g><g class="cls-16"><rect class="cls-14" x="361.03" y="152.98" width="35.7" height="125.11"/></g><g class="cls-16"><rect class="cls-14" x="408.3" y="134.12" width="35.7" height="143.97"/></g><g class="cls-16"><rect class="cls-14" x="460.3" y="49.59" width="35.7" height="228.49"/></g><g class="cls-16"><rect class="cls-14" x="511.98" y="165.25" width="35.7" height="112.83"/></g><g class="cls-16"><rect class="cls-14" x="558.09" y="98.47" width="35.7" height="179.62"/></g><path class="cls-14" d="M529.83,124.43h-.26a2.1,2.1,0,0,1-1.7-1.35L485,6.48,427.82,82.07a2.07,2.07,0,0,1-.67.58l-49.92,27a2.09,2.09,0,1,1-2-3.68l49.51-26.82L483.93.92a2.11,2.11,0,0,1,2-.81,2.09,2.09,0,0,1,1.65,1.34l42.83,116.37,43.83-64.19A2.09,2.09,0,0,1,577.67,56l-46.11,67.53A2.09,2.09,0,0,1,529.83,124.43Z"/><polygon class="cls-14" points="599.17 24.19 559.45 40.87 593.76 66.93 599.17 24.19"/><path class="cls-17" d="M402.45,357.86c-3.45,2.52-4.81,7-5.64,11.14-1,4.88-1.45,10.21,1,14.56a15.14,15.14,0,0,0,5.24,5.31,20.77,20.77,0,0,0,24.63-2.35,7.93,7.93,0,0,0,2.43-3.65,3.6,3.6,0,0,0-1.36-3.92,5.51,5.51,0,0,0-2-.59l-5.33-.85c-2.16-.35-4.57-.83-5.82-2.63a5,5,0,0,1,.19-5.54,7.76,7.76,0,0,1,4.92-3c1.4-.28,3-.37,3.94-1.46a3.28,3.28,0,0,0,.69-1.82C426.16,353.9,406.92,354.59,402.45,357.86Z"/><path class="cls-17" d="M411.65,350.37a10,10,0,0,1,.45-5,3.87,3.87,0,0,1,4-2.45,17.49,17.49,0,0,1-1.31,7.5c-.46,1.1-1.5,2.33-2.58,1.84l-.08-2.41"/><path class="cls-17" d="M408.56,351.94a17.88,17.88,0,0,0-17-3.83,18.45,18.45,0,0,1,7.93,3.29c1.52,1.12,2.94,2.5,4.77,3s4.22-.41,4.43-2.29"/><path class="cls-8" d="M171.18,80.31l-.56,2.77,2.65.06,0,.38-2.65.42.82,2.73-.34.16L169.7,84.2l-2.47,1.57-.22-.34,2.11-1.87-2.09-2,.22-.3,2.39,1.56,1.16-2.61Z"/><path class="cls-8" d="M179.66,80.31l-.56,2.77,2.65.06,0,.38-2.65.42.82,2.73-.34.16-1.38-2.63-2.47,1.57-.22-.34,2.11-1.87-2.09-2,.22-.3,2.39,1.56,1.16-2.61Z"/><path class="cls-8" d="M188.14,80.31l-.56,2.77,2.65.06,0,.38-2.65.42.83,2.73-.35.16-1.38-2.63-2.47,1.57-.22-.34,2.11-1.87-2.09-2,.22-.3,2.39,1.56,1.16-2.61Z"/><path class="cls-8" d="M196.62,80.31l-.56,2.77,2.65.06,0,.38-2.65.42.83,2.73-.35.16-1.38-2.63-2.47,1.57-.22-.34,2.11-1.87-2.09-2,.23-.3,2.38,1.56,1.16-2.61Z"/><path class="cls-8" d="M205.11,80.31l-.57,2.77,2.65.06,0,.38-2.65.42.83,2.73-.34.16-1.39-2.63-2.46,1.57-.23-.34L203,83.56l-2.09-2,.23-.3,2.38,1.56,1.16-2.61Z"/><path class="cls-8" d="M213.59,80.31,213,83.08l2.65.06,0,.38-2.65.42.83,2.73-.34.16L212.1,84.2l-2.46,1.57-.22-.34,2.1-1.87-2.08-2,.22-.3L212,82.84l1.16-2.61Z"/><path class="cls-8" d="M222.07,80.31l-.57,2.77,2.65.06,0,.38-2.65.42.83,2.73-.34.16-1.39-2.63-2.46,1.57-.22-.34,2.1-1.87-2.08-2,.22-.3,2.38,1.56,1.17-2.61Z"/><path class="cls-8" d="M230.55,80.31,230,83.08l2.64.06,0,.38-2.64.42.82,2.73-.34.16-1.39-2.63-2.46,1.57-.22-.34,2.1-1.87-2.08-2,.22-.3L229,82.84l1.17-2.61Z"/><path class="cls-8" d="M239,80.31l-.56,2.77,2.64.06,0,.38-2.64.42.82,2.73-.34.16-1.39-2.63-2.46,1.57-.22-.34,2.1-1.87-2.08-2,.22-.3,2.38,1.56,1.17-2.61Z"/><path class="cls-8" d="M247.51,80.31,247,83.08l2.64.06,0,.38-2.64.42.82,2.73-.34.16L246,84.2l-2.46,1.57-.22-.34,2.1-1.87-2.08-2,.22-.3L246,82.84l1.17-2.61Z"/><path class="cls-8" d="M256,80.31l-.56,2.77,2.64.06,0,.38-2.64.42.82,2.73-.34.16L254.5,84.2,252,85.77l-.22-.34,2.1-1.87-2.08-2,.22-.3,2.38,1.56,1.17-2.61Z"/><path class="cls-8" d="M170.71,106.51l-.39,2.77,1.84.06v.38l-1.85.42.57,2.73-.23.16-1-2.63L168,112l-.15-.34,1.47-1.87-1.46-2,.15-.31,1.67,1.57.81-2.61Z"/><path class="cls-8" d="M176.62,106.51l-.39,2.77,1.85.06v.38l-1.85.42.57,2.73-.24.16-1-2.63L173.87,112l-.16-.34,1.47-1.87-1.45-2,.15-.31,1.67,1.57.81-2.61Z"/><path class="cls-8" d="M182.54,106.51l-.39,2.77,1.85.06,0,.38-1.84.42.57,2.73-.24.16-1-2.63L179.79,112l-.16-.34,1.47-1.87-1.45-2,.15-.31,1.66,1.57.82-2.61Z"/><path class="cls-8" d="M188.46,106.51l-.39,2.77,1.84.06v.38l-1.85.42.58,2.73-.24.16-1-2.63L185.7,112l-.15-.34,1.47-1.87-1.46-2,.16-.31,1.66,1.57.81-2.61Z"/><path class="cls-8" d="M194.38,106.51l-.39,2.77,1.84.06v.38l-1.85.42.58,2.73-.24.16-1-2.63L191.62,112l-.15-.34,1.47-1.87-1.46-2,.15-.31L193.3,109l.81-2.61Z"/><path class="cls-8" d="M200.29,106.51l-.39,2.77,1.85.06v.38l-1.85.42.57,2.73-.24.16-1-2.63L197.54,112l-.16-.34,1.47-1.87-1.45-2,.15-.31,1.67,1.57.81-2.61Z"/><path class="cls-8" d="M206.21,106.51l-.39,2.77,1.85.06,0,.38-1.84.42.57,2.73-.24.16-1-2.63L203.46,112l-.16-.34,1.47-1.87-1.45-2,.15-.31,1.67,1.57.81-2.61Z"/><path class="cls-8" d="M212.13,106.51l-.39,2.77,1.85.06,0,.38-1.85.42.58,2.73-.24.16-1-2.63L209.37,112l-.15-.34,1.47-1.87-1.46-2,.16-.31,1.66,1.57.81-2.61Z"/><path class="cls-8" d="M218.05,106.51l-.39,2.77,1.84.06v.38l-1.85.42.58,2.73L218,113l-1-2.63L215.29,112l-.15-.34,1.47-1.87-1.46-2,.16-.31L217,109l.81-2.61Z"/><path class="cls-8" d="M224,106.51l-.4,2.77,1.85.06v.38l-1.85.42.57,2.73-.23.16-1-2.63L221.21,112l-.15-.34,1.46-1.87-1.45-2,.15-.31,1.67,1.57.81-2.61Z"/><path class="cls-8" d="M229.88,106.51l-.39,2.77,1.85.06,0,.38-1.84.42.57,2.73-.24.16-1-2.63L227.13,112l-.16-.34,1.47-1.87-1.45-2,.15-.31,1.67,1.57.81-2.61Z"/><path class="cls-8" d="M173.78,129.55l-.72,2.77,3.38.06,0,.38-3.39.42,1.06,2.73-.44.16-1.77-2.63L168.73,135l-.28-.34,2.69-1.86-2.67-2,.29-.3,3,1.57,1.49-2.61Z"/><path class="cls-8" d="M184.62,129.55l-.72,2.77,3.38.06,0,.38-3.39.42,1,2.73-.43.16-1.77-2.63L179.57,135l-.28-.34L182,132.8l-2.67-2,.29-.3,3,1.57,1.49-2.61Z"/><path class="cls-8" d="M195.46,129.55l-.72,2.77,3.38.06,0,.38-3.39.42,1,2.73-.43.16-1.77-2.63L190.41,135l-.28-.34,2.69-1.86-2.67-2,.28-.3,3,1.57,1.49-2.61Z"/><path class="cls-8" d="M206.3,129.55l-.72,2.77,3.38.06,0,.38-3.39.42,1,2.73-.43.16-1.77-2.63L201.25,135l-.28-.34,2.69-1.86-2.67-2,.28-.3,3,1.57,1.49-2.61Z"/><path class="cls-8" d="M217.14,129.55l-.72,2.77,3.38.06,0,.38-3.39.42,1.05,2.73-.43.16-1.77-2.63L212.09,135l-.28-.34,2.69-1.86-2.67-2,.28-.3,3,1.57,1.49-2.61Z"/><path class="cls-8" d="M228,129.55l-.72,2.77,3.38.06,0,.38-3.39.42,1.05,2.73-.43.16-1.77-2.63L222.93,135l-.28-.34,2.69-1.86-2.67-2,.28-.3,3.05,1.57,1.49-2.61Z"/><path class="cls-8" d="M238.82,129.55l-.72,2.77,3.38.06,0,.38-3.39.42,1.05,2.73-.43.16-1.77-2.63L233.77,135l-.28-.34,2.69-1.86-2.67-2,.28-.3,3.05,1.57,1.49-2.61Z"/><path class="cls-8" d="M249.66,129.55l-.72,2.77,3.38.06,0,.38-3.39.42,1.05,2.73-.43.16-1.77-2.63L244.61,135l-.28-.34L247,132.8l-2.67-2,.28-.3,3.05,1.57,1.49-2.61Z"/><path class="cls-8" d="M260.5,129.55l-.72,2.77,3.38.06,0,.38-3.38.42,1.05,2.73-.43.16-1.77-2.63L255.45,135l-.28-.34,2.69-1.86-2.67-2,.28-.3,3,1.57,1.49-2.61Z"/><path class="cls-8" d="M271.34,129.55l-.72,2.77,3.38.06,0,.38-3.38.42,1.05,2.73-.43.16-1.77-2.63L266.29,135l-.28-.34,2.69-1.86-2.67-2,.28-.3,3.05,1.57,1.49-2.61Z"/><path class="cls-8" d="M282.17,129.55l-.71,2.77,3.38.06,0,.38-3.38.42,1.05,2.73-.43.16-1.77-2.63L277.13,135l-.29-.34,2.7-1.86-2.67-2,.28-.3,3.05,1.57,1.49-2.61Z"/><path class="cls-8" d="M796.88,164.63l-.56,2.77,2.64.06,0,.38-2.64.42.82,2.73-.34.16-1.39-2.63-2.46,1.57-.22-.34,2.1-1.87-2.08-2,.22-.31,2.38,1.57,1.17-2.61Z"/><path class="cls-8" d="M805.36,164.63l-.56,2.77,2.64.06,0,.38-2.64.42.82,2.73-.34.16-1.39-2.63-2.46,1.57-.22-.34,2.1-1.87-2.08-2,.22-.31,2.38,1.57,1.17-2.61Z"/><path class="cls-8" d="M813.84,164.63l-.56,2.77,2.64.06,0,.38-2.64.42.82,2.73-.34.16-1.39-2.63-2.46,1.57-.22-.34,2.1-1.87-2.08-2,.22-.31,2.38,1.57,1.17-2.61Z"/><path class="cls-8" d="M822.32,164.63l-.56,2.77,2.64.06,0,.38-2.64.42.82,2.73-.34.16-1.39-2.63-2.46,1.57-.22-.34,2.1-1.87-2.08-2,.22-.31,2.38,1.57,1.17-2.61Z"/><path class="cls-8" d="M830.8,164.63l-.56,2.77,2.64.06,0,.38-2.64.42L831,171l-.34.16-1.39-2.63-2.46,1.57-.22-.34,2.1-1.87-2.08-2,.22-.31,2.38,1.57,1.17-2.61Z"/><path class="cls-8" d="M839.28,164.63l-.56,2.77,2.64.06,0,.38-2.64.42.82,2.73-.34.16-1.39-2.63-2.46,1.57-.22-.34,2.1-1.87-2.08-2,.22-.31,2.38,1.57,1.17-2.61Z"/><path class="cls-8" d="M847.76,164.63l-.56,2.77,2.64.06,0,.38-2.64.42L848,171l-.34.16-1.38-2.63-2.47,1.57-.22-.34,2.1-1.87-2.08-2,.22-.31,2.39,1.57,1.16-2.61Z"/><path class="cls-8" d="M856.24,164.63l-.56,2.77,2.64.06,0,.38-2.64.42.82,2.73-.34.16-1.38-2.63-2.47,1.57-.22-.34,2.1-1.87-2.08-2,.22-.31,2.39,1.57,1.16-2.61Z"/><path class="cls-8" d="M864.72,164.63l-.56,2.77,2.65.06,0,.38-2.65.42L865,171l-.34.16-1.38-2.63-2.47,1.57-.22-.34,2.1-1.87-2.08-2,.22-.31,2.39,1.57,1.16-2.61Z"/><path class="cls-8" d="M873.2,164.63l-.56,2.77,2.65.06,0,.38-2.65.42.82,2.73-.34.16-1.38-2.63-2.47,1.57-.22-.34,2.11-1.87-2.09-2,.22-.31,2.39,1.57,1.16-2.61Z"/><path class="cls-8" d="M881.68,164.63l-.56,2.77,2.65.06,0,.38-2.65.42.82,2.73-.34.16-1.38-2.63-2.47,1.57-.22-.34,2.11-1.87-2.09-2,.22-.31,2.39,1.57,1.16-2.61Z"/><path class="cls-8" d="M796.4,190.83,796,193.6l1.84.06V194l-1.85.42.58,2.73-.24.16-1-2.63-1.72,1.56-.15-.34,1.47-1.86-1.46-2,.16-.3,1.66,1.57.81-2.61Z"/><path class="cls-8" d="M802.32,190.83l-.39,2.77,1.84.06V194l-1.85.42.58,2.73-.24.16-1-2.63-1.72,1.56-.15-.34,1.47-1.86-1.46-2,.15-.3,1.67,1.57.81-2.61Z"/><path class="cls-8" d="M808.23,190.83l-.39,2.77,1.85.06V194l-1.85.42.57,2.73-.24.16-1-2.63-1.72,1.56-.16-.34,1.47-1.86-1.45-2,.15-.3,1.67,1.57.81-2.61Z"/><path class="cls-8" d="M814.15,190.83l-.39,2.77,1.85.06,0,.38-1.84.42.57,2.73-.24.16-1-2.63-1.72,1.56-.16-.34,1.47-1.86-1.45-2,.15-.3,1.67,1.57.81-2.61Z"/><path class="cls-8" d="M820.07,190.83l-.39,2.77,1.85.06,0,.38-1.85.42.58,2.73-.24.16-1-2.63-1.72,1.56-.15-.34,1.47-1.86-1.46-2,.16-.3,1.66,1.57.81-2.61Z"/><path class="cls-8" d="M826,190.83l-.39,2.77,1.84.06V194l-1.85.42.58,2.73-.24.16-1-2.63-1.72,1.56-.15-.34,1.47-1.86-1.46-2,.16-.3,1.66,1.57.81-2.61Z"/><path class="cls-8" d="M831.91,190.83l-.4,2.77,1.85.06V194l-1.85.42.57,2.73-.23.16-1-2.63-1.72,1.56-.15-.34,1.46-1.86-1.45-2,.15-.3,1.67,1.57.81-2.61Z"/><path class="cls-8" d="M837.82,190.83l-.39,2.77,1.85.06,0,.38-1.84.42.57,2.73-.24.16-1-2.63-1.72,1.56-.16-.34,1.47-1.86-1.45-2,.15-.3,1.67,1.57.81-2.61Z"/><path class="cls-8" d="M843.74,190.83l-.39,2.77,1.85.06,0,.38-1.85.42.58,2.73-.24.16-1-2.63L841,196.28l-.15-.34,1.47-1.86-1.46-2,.16-.3,1.66,1.57.81-2.61Z"/><path class="cls-8" d="M849.66,190.83l-.39,2.77,1.84.06V194l-1.85.42.58,2.73-.24.16-1-2.63-1.72,1.56-.15-.34,1.47-1.86-1.46-2,.16-.3,1.66,1.57.81-2.61Z"/><path class="cls-8" d="M855.58,190.83l-.4,2.77,1.85.06V194l-1.85.42.57,2.73-.23.16-1-2.63-1.72,1.56-.15-.34,1.46-1.86-1.45-2,.15-.3,1.67,1.57.81-2.61Z"/><path class="cls-8" d="M799.47,213.87l-.72,2.76,3.39.06,0,.39-3.38.42,1,2.72-.44.16-1.77-2.62-3.15,1.56-.28-.34,2.69-1.86-2.66-2,.28-.3,3,1.56,1.48-2.6Z"/><path class="cls-8" d="M810.31,213.87l-.72,2.76,3.39.06,0,.39-3.38.42,1,2.72-.44.16-1.77-2.62-3.15,1.56L805,219l2.69-1.86-2.66-2,.28-.3,3.05,1.56,1.48-2.6Z"/><path class="cls-8" d="M821.15,213.87l-.72,2.76,3.39.06,0,.39-3.38.42,1.05,2.72-.44.16-1.77-2.62-3.15,1.56-.28-.34,2.69-1.86-2.66-2,.28-.3,3,1.56,1.48-2.6Z"/><path class="cls-8" d="M832,213.87l-.72,2.76,3.38.06,0,.39-3.38.42,1,2.72-.44.16-1.77-2.62-3.15,1.56-.28-.34,2.69-1.86-2.66-2,.28-.3,3,1.56,1.48-2.6Z"/><path class="cls-8" d="M842.83,213.87l-.72,2.76,3.38.06,0,.39-3.38.42,1,2.72-.44.16-1.77-2.62-3.15,1.56-.28-.34,2.69-1.86-2.66-2,.28-.3,3.05,1.56,1.48-2.6Z"/><path class="cls-8" d="M853.67,213.87l-.72,2.76,3.38.06,0,.39-3.38.42,1.05,2.72-.44.16-1.77-2.62-3.15,1.56-.28-.34,2.69-1.86-2.67-2,.29-.3,3.05,1.56,1.48-2.6Z"/><path class="cls-8" d="M864.51,213.87l-.72,2.76,3.38.06,0,.39-3.38.42,1.05,2.72-.44.16-1.77-2.62-3.15,1.56-.28-.34,2.69-1.86-2.67-2,.29-.3,3,1.56,1.48-2.6Z"/><path class="cls-8" d="M875.35,213.87l-.72,2.76,3.38.06,0,.39-3.38.42,1,2.72-.44.16-1.77-2.62-3.15,1.56L870,219l2.69-1.86-2.67-2,.29-.3,3,1.56,1.48-2.6Z"/><path class="cls-8" d="M886.19,213.87l-.72,2.76,3.38.06,0,.39-3.38.42,1,2.72-.44.16-1.77-2.62-3.15,1.56-.28-.34,2.69-1.86-2.67-2,.29-.3,3.05,1.56,1.48-2.6Z"/><path class="cls-8" d="M897,213.87l-.72,2.76,3.38.06,0,.39-3.39.42,1.06,2.72-.44.16-1.77-2.62L892,219.32l-.28-.34,2.69-1.86-2.67-2,.29-.3,3,1.56,1.49-2.6Z"/><path class="cls-8" d="M907.87,213.87l-.72,2.76,3.38.06,0,.39-3.39.42,1.06,2.72-.44.16L906,217.76l-3.15,1.56-.28-.34,2.69-1.86-2.67-2,.29-.3,3,1.56,1.49-2.6Z"/><g class="cls-16"><path class="cls-12" d="M843.11,540.16H832.56a6.64,6.64,0,0,1-6.63-6.24l-3.08-50h30l-3.08,50A6.64,6.64,0,0,1,843.11,540.16Z"/><rect class="cls-18" x="818.31" y="474.09" width="39.07" height="10.71" rx="4.45"/><path class="cls-12" d="M837.31,469.4a3.68,3.68,0,0,1-2.19-.69,1.38,1.38,0,0,1-.33-1.94,1.4,1.4,0,0,1,1.94-.33,1.28,1.28,0,0,0,1.08.09,1.88,1.88,0,0,0,1.17-1.1,3,3,0,0,0-1.33-3.19,9.81,9.81,0,0,0-1.37-.76,10,10,0,0,1-2.25-1.39c-2.16-1.89-2.46-4.87-2.49-7.24,0-2,.15-4.33,1.51-6.14a5.3,5.3,0,0,1,3.77-2.06,4,4,0,0,1,3.14,1.09,1.39,1.39,0,0,1-2,2,1.22,1.22,0,0,0-1-.29,2.49,2.49,0,0,0-1.74.94,7.35,7.35,0,0,0-.95,4.45c0,1.8.21,4,1.54,5.18a8,8,0,0,0,1.64,1,12.92,12.92,0,0,1,1.75,1,5.85,5.85,0,0,1,2.37,6.33,4.65,4.65,0,0,1-3,2.87A4.42,4.42,0,0,1,837.31,469.4Z"/><path class="cls-12" d="M848.91,471.83a2.59,2.59,0,0,1-1.5-.47,1.39,1.39,0,0,1,1.53-2.32.3.3,0,0,0,.15-.11.91.91,0,0,0-.41-.81,5.24,5.24,0,0,0-.59-.32,5.58,5.58,0,0,1-1.27-.79,5.4,5.4,0,0,1-1.49-4.15,5.58,5.58,0,0,1,.89-3.49,3.35,3.35,0,0,1,2.4-1.31,2.72,2.72,0,0,1,2.11.75,1.4,1.4,0,0,1,0,2,1.38,1.38,0,0,1-1.91.06.6.6,0,0,0-.37.2,3.15,3.15,0,0,0-.33,1.8c0,1.09.18,1.77.53,2.07a3.3,3.3,0,0,0,.67.39,7.56,7.56,0,0,1,1,.55,3.59,3.59,0,0,1,1.44,3.95,3,3,0,0,1-1.92,1.88A2.83,2.83,0,0,1,848.91,471.83Z"/><path class="cls-12" d="M827.88,468.33a2.62,2.62,0,0,1-1.79-.71,1.39,1.39,0,0,1,1.84-2.09,1,1,0,0,0,.47-.64,2.72,2.72,0,0,0-.74-2.44,5.7,5.7,0,0,0-.77-.55,6.51,6.51,0,0,1-1.5-1.19c-1.39-1.57-1.58-4-1.6-5.88a9.81,9.81,0,0,1,1-4.93,3.72,3.72,0,0,1,2.86-1.9,2.79,2.79,0,0,1,2.42,1.09,1.39,1.39,0,1,1-2.19,1.72l0,0a1,1,0,0,0-.65.52,7.45,7.45,0,0,0-.57,3.52c0,1.31.11,3.16.9,4.05a4.09,4.09,0,0,0,.91.7,7.55,7.55,0,0,1,1.15.84,5.48,5.48,0,0,1,1.56,5.17,3.71,3.71,0,0,1-2.4,2.64A3,3,0,0,1,827.88,468.33Z"/></g></svg>